<?xml version="1.0" encoding="iso-8859-1"?>
<!-- Generator: Adobe Illustrator 25.3.1, SVG Export Plug-In . SVG Version: 6.00 Build 0)  -->
<svg version="1.1" xmlns="http://www.w3.org/2000/svg" xmlns:xlink="http://www.w3.org/1999/xlink" x="0px" y="0px"
	 viewBox="0 0 64 64" style="enable-background:new 0 0 64 64;" xml:space="preserve">
<g id="text" style="display:none;">
</g>
<g id="guide" style="display:none;">
</g>
<g id="stroke" style="display:none;">
	
		<line style="display:inline;fill:none;stroke:#000000;stroke-width:2;stroke-linecap:round;stroke-linejoin:round;stroke-miterlimit:10;" x1="40.196" y1="4.613" x2="20.128" y2="50.767"/>
	
		<circle style="display:inline;fill:#BCBEC0;stroke:#000000;stroke-width:2;stroke-linecap:round;stroke-linejoin:round;stroke-miterlimit:10;" cx="30.162" cy="27.69" r="18.34"/>
	
		<path style="display:inline;fill:none;stroke:#000000;stroke-width:2;stroke-linecap:round;stroke-linejoin:round;stroke-miterlimit:10;" d="
		M19.102,46.886l2.282,0.992c5.167,2.247,11.19,2.522,16.846,0.294c11.312-4.456,16.87-17.239,12.414-28.551
		c-2.228-5.656-6.538-9.874-11.704-12.12l-2.282-0.992"/>
	
		<line style="display:inline;fill:none;stroke:#000000;stroke-width:2;stroke-linecap:round;stroke-linejoin:round;stroke-miterlimit:10;" x1="30.162" y1="49.704" x2="30.162" y2="54.52"/>
	
		<path style="display:inline;fill:#BCBEC0;stroke:#000000;stroke-width:2;stroke-linecap:round;stroke-linejoin:round;stroke-miterlimit:10;" d="
		M41.955,54.52H18.37c-1.344,0-2.434,1.09-2.434,2.434v0c0,1.344,1.09,2.434,2.434,2.434h23.585c1.344,0,2.434-1.09,2.434-2.434v0
		C44.388,55.61,43.299,54.52,41.955,54.52z"/>
	
		<path style="display:inline;fill:#BCBEC0;stroke:#000000;stroke-width:2;stroke-linecap:round;stroke-linejoin:round;stroke-miterlimit:10;" d="
		M19.487,21.594l-0.511,0.515c-0.799,0.805-0.539,2.162,0.501,2.614l2.663,1.158c0.392,0.17,0.7,0.49,0.857,0.888l1.143,2.902
		c0.157,0.398,0.149,0.842-0.022,1.234l-1.106,2.544c-0.171,0.393-0.49,0.701-0.889,0.858l-7.584,2.981
		c-3.027-4.926-3.677-11.205-1.197-16.91c1.97-4.53,5.548-7.87,9.777-9.619l5.816,2.529c0.392,0.17,0.7,0.49,0.857,0.888
		l0.879,2.231c0.157,0.398,0.149,0.842-0.022,1.234l-1.054,2.425c-0.17,0.392-0.49,0.7-0.888,0.857l-3.679,1.449
		c-0.398,0.157-0.842,0.149-1.234-0.022l-2.522-1.097C20.665,20.986,19.956,21.122,19.487,21.594z"/>
	
		<path style="display:inline;fill:#BCBEC0;stroke:#000000;stroke-width:2;stroke-linecap:round;stroke-linejoin:round;stroke-miterlimit:10;" d="
		M46.981,35.002c-2.448,5.631-7.387,9.415-12.957,10.614l-2.054-5.198c-0.157-0.398-0.15-0.843,0.021-1.235l0.962-2.213
		c0.17-0.392,0.49-0.7,0.888-0.857l3.534-1.392c0.398-0.157,0.842-0.149,1.234,0.022l0.725,0.315
		c0.817,0.355,1.766-0.019,2.121-0.836l0,0c0.17-0.392,0.178-0.836,0.022-1.234l-1.045-2.652c-0.157-0.398-0.465-0.717-0.857-0.888
		l-2.439-1.061c-0.817-0.355-1.191-1.305-0.836-2.121l0.207-0.476c0.171-0.393,0.491-0.701,0.889-0.858l4.108-1.612
		c0.397-0.156,0.84-0.148,1.232,0.022l5.67,2.466C48.721,28.845,48.285,32.003,46.981,35.002z"/>
</g>
<g id="flat" style="display:none;">
	<path style="display:inline;fill:#7C614B;" d="M20.127,51.767c-0.133,0-0.268-0.027-0.397-0.083
		c-0.507-0.22-0.739-0.809-0.519-1.316L39.279,4.214c0.221-0.505,0.806-0.741,1.315-0.518c0.507,0.22,0.739,0.809,0.519,1.316
		L21.045,51.166C20.881,51.542,20.514,51.767,20.127,51.767z M31.162,49.704h-2v6.589h2V49.704z"/>
	<circle style="display:inline;fill:#66D7DE;" cx="30.162" cy="27.69" r="18.34"/>
	<path style="display:inline;fill:#C07A53;" d="M30.156,50.716c-3.116,0-6.228-0.642-9.171-1.921l-2.281-0.992
		c-0.507-0.22-0.739-0.81-0.519-1.316c0.22-0.506,0.807-0.741,1.315-0.518l2.281,0.992c5.146,2.237,10.858,2.338,16.082,0.281
		c5.223-2.058,9.331-6.025,11.569-11.173s2.338-10.858,0.28-16.081c-2.057-5.223-6.024-9.332-11.172-11.57L36.26,7.426
		c-0.507-0.22-0.739-0.809-0.519-1.316c0.22-0.506,0.807-0.74,1.315-0.518l2.282,0.992c5.638,2.451,9.983,6.951,12.236,12.671
		c2.253,5.719,2.144,11.974-0.308,17.611c-2.451,5.637-6.951,9.982-12.671,12.235C35.864,50.179,33.008,50.716,30.156,50.716z
		 M41.955,54.52H18.37c-1.344,0-2.434,1.09-2.434,2.434v0c0,1.344,1.09,2.434,2.434,2.434h23.585c1.344,0,2.434-1.09,2.434-2.434v0
		C44.388,55.61,43.299,54.52,41.955,54.52z"/>
	<path style="display:inline;fill:#6CC72B;" d="M19.487,21.594l-0.511,0.515c-0.799,0.805-0.539,2.162,0.501,2.614l2.663,1.158
		c0.392,0.17,0.7,0.49,0.857,0.888l1.143,2.902c0.157,0.398,0.149,0.842-0.022,1.234l-1.106,2.544
		c-0.171,0.393-0.49,0.701-0.889,0.858l-7.584,2.981c-3.027-4.926-3.677-11.205-1.197-16.91c1.97-4.53,5.548-7.87,9.777-9.619
		l5.816,2.529c0.392,0.17,0.7,0.49,0.857,0.888l0.879,2.231c0.157,0.398,0.149,0.842-0.022,1.234l-1.054,2.425
		c-0.17,0.392-0.49,0.7-0.888,0.857l-3.679,1.449c-0.398,0.157-0.842,0.149-1.234-0.022l-2.522-1.097
		C20.665,20.986,19.956,21.122,19.487,21.594z M48.406,25.808l-5.67-2.466c-0.391-0.17-0.834-0.178-1.232-0.022l-4.108,1.612
		c-0.399,0.156-0.719,0.465-0.889,0.858l-0.207,0.476c-0.355,0.817,0.019,1.766,0.836,2.121l2.439,1.061
		c0.392,0.17,0.7,0.49,0.857,0.888l1.045,2.652c0.157,0.398,0.149,0.842-0.022,1.234l0,0c-0.355,0.817-1.305,1.191-2.121,0.836
		l-0.725-0.315c-0.392-0.17-0.836-0.178-1.234-0.022l-3.534,1.392c-0.398,0.157-0.717,0.465-0.888,0.857l-0.962,2.213
		c-0.171,0.393-0.178,0.837-0.021,1.235l2.054,5.198c5.57-1.198,10.509-4.983,12.957-10.614
		C48.285,32.003,48.721,28.845,48.406,25.808z"/>
</g>
<g id="outlinestroke" style="display:none;">
	
		<line style="display:inline;fill:none;stroke:#000000;stroke-width:2;stroke-linecap:round;stroke-linejoin:round;stroke-miterlimit:10;" x1="22.85" y1="44.51" x2="20.13" y2="50.77"/>
	
		<line style="display:inline;fill:none;stroke:#000000;stroke-width:2;stroke-linecap:round;stroke-linejoin:round;stroke-miterlimit:10;" x1="40.2" y1="4.61" x2="37.48" y2="10.87"/>
	
		<circle style="display:inline;fill:none;stroke:#000000;stroke-width:2;stroke-linecap:round;stroke-linejoin:round;stroke-miterlimit:10;" cx="30.162" cy="27.69" r="18.34"/>
	
		<path style="display:inline;fill:none;stroke:#000000;stroke-width:2;stroke-linecap:round;stroke-linejoin:round;stroke-miterlimit:10;" d="
		M19.102,46.886l2.282,0.992c5.167,2.247,11.19,2.522,16.846,0.294c11.312-4.456,16.87-17.239,12.414-28.551
		c-2.228-5.656-6.538-9.874-11.704-12.12l-2.282-0.992"/>
	
		<line style="display:inline;fill:none;stroke:#000000;stroke-width:2;stroke-linejoin:round;stroke-miterlimit:10;" x1="30.162" y1="49.704" x2="30.162" y2="54.52"/>
	
		<path style="display:inline;fill:none;stroke:#000000;stroke-width:2;stroke-linecap:round;stroke-linejoin:round;stroke-miterlimit:10;" d="
		M41.955,54.52H18.37c-1.344,0-2.434,1.09-2.434,2.434v0c0,1.344,1.09,2.434,2.434,2.434h23.585c1.344,0,2.434-1.09,2.434-2.434v0
		C44.388,55.61,43.299,54.52,41.955,54.52z"/>
	
		<path style="display:inline;fill:none;stroke:#000000;stroke-width:2;stroke-linecap:round;stroke-linejoin:round;stroke-miterlimit:10;" d="
		M19.487,21.594l-0.511,0.515c-0.799,0.805-0.539,2.162,0.501,2.614l2.663,1.158c0.392,0.17,0.7,0.49,0.857,0.888l1.143,2.902
		c0.157,0.398,0.149,0.842-0.022,1.234l-1.106,2.544c-0.171,0.393-0.49,0.701-0.889,0.858l-7.584,2.981
		c-3.027-4.926-3.677-11.205-1.197-16.91c1.97-4.53,5.548-7.87,9.777-9.619l5.816,2.529c0.392,0.17,0.7,0.49,0.857,0.888
		l0.879,2.231c0.157,0.398,0.149,0.842-0.022,1.234l-1.054,2.425c-0.17,0.392-0.49,0.7-0.888,0.857l-3.679,1.449
		c-0.398,0.157-0.842,0.149-1.234-0.022l-2.522-1.097C20.665,20.986,19.956,21.122,19.487,21.594z"/>
	
		<path style="display:inline;fill:none;stroke:#000000;stroke-width:2;stroke-linecap:round;stroke-linejoin:round;stroke-miterlimit:10;" d="
		M46.981,35.002c-2.448,5.631-7.387,9.415-12.957,10.614l-2.054-5.198c-0.157-0.398-0.15-0.843,0.021-1.235l0.962-2.213
		c0.17-0.392,0.49-0.7,0.888-0.857l3.534-1.392c0.398-0.157,0.842-0.149,1.234,0.022l0.725,0.315
		c0.817,0.355,1.766-0.019,2.121-0.836l0,0c0.17-0.392,0.178-0.836,0.022-1.234l-1.045-2.652c-0.157-0.398-0.465-0.717-0.857-0.888
		l-2.439-1.061c-0.817-0.355-1.191-1.305-0.836-2.121l0.207-0.476c0.171-0.393,0.491-0.701,0.889-0.858l4.108-1.612
		c0.397-0.156,0.84-0.148,1.232,0.022l5.67,2.466C48.721,28.845,48.285,32.003,46.981,35.002z"/>
</g>
<g id="flat2" style="display:none;">
	<circle style="display:inline;fill:#66D7DE;" cx="30.162" cy="27.69" r="18.34"/>
	<path style="display:inline;fill:#C07A53;" d="M41.955,54.52H18.37c-1.344,0-2.434,1.09-2.434,2.434v0
		c0,1.344,1.09,2.434,2.434,2.434h23.585c1.344,0,2.434-1.09,2.434-2.434v0C44.388,55.61,43.299,54.52,41.955,54.52z"/>
	<path style="display:inline;fill:#6CC72B;" d="M19.487,21.594l-0.511,0.515c-0.799,0.805-0.539,2.162,0.501,2.614l2.663,1.158
		c0.392,0.17,0.7,0.49,0.857,0.888l1.143,2.902c0.157,0.398,0.149,0.842-0.022,1.234l-1.106,2.544
		c-0.171,0.393-0.49,0.701-0.889,0.858l-7.584,2.981c-3.027-4.926-3.677-11.205-1.197-16.91c1.97-4.53,5.548-7.87,9.777-9.619
		l5.816,2.529c0.392,0.17,0.7,0.49,0.857,0.888l0.879,2.231c0.157,0.398,0.149,0.842-0.022,1.234l-1.054,2.425
		c-0.17,0.392-0.49,0.7-0.888,0.857l-3.679,1.449c-0.398,0.157-0.842,0.149-1.234-0.022l-2.522-1.097
		C20.665,20.986,19.956,21.122,19.487,21.594z M48.406,25.808l-5.67-2.466c-0.391-0.17-0.834-0.178-1.232-0.022l-4.108,1.612
		c-0.399,0.156-0.719,0.465-0.889,0.858l-0.207,0.476c-0.355,0.817,0.019,1.766,0.836,2.121l2.439,1.061
		c0.392,0.17,0.7,0.49,0.857,0.888l1.045,2.652c0.157,0.398,0.149,0.842-0.022,1.234l0,0c-0.355,0.817-1.305,1.191-2.121,0.836
		l-0.725-0.315c-0.392-0.17-0.836-0.178-1.234-0.022l-3.534,1.392c-0.398,0.157-0.717,0.465-0.888,0.857l-0.962,2.213
		c-0.171,0.393-0.178,0.837-0.021,1.235l2.054,5.198c5.57-1.198,10.509-4.983,12.957-10.614
		C48.285,32.003,48.721,28.845,48.406,25.808z"/>
</g>
<g id="outline">
	<path d="M51.575,19.255c-2.129-5.406-6.144-9.7-11.336-12.226l0.878-2.021c0.221-0.506-0.012-1.096-0.519-1.315
		c-0.51-0.224-1.097,0.011-1.315,0.519l-0.858,1.976l-1.368-0.595c-0.509-0.222-1.096,0.012-1.315,0.518
		c-0.221,0.507,0.012,1.096,0.519,1.316l1.368,0.595l-0.687,1.58c-4.489-1.687-9.372-1.676-13.867,0.094
		c-4.807,1.894-8.588,5.545-10.647,10.282c-4.117,9.471-0.016,20.455,9.128,25.003l-0.688,1.583l-1.367-0.594
		c-0.509-0.223-1.096,0.012-1.315,0.518c-0.221,0.506,0.012,1.096,0.519,1.316l1.367,0.594l-0.858,1.974
		c-0.221,0.506,0.012,1.096,0.519,1.315c0.13,0.057,0.265,0.083,0.397,0.083c0.387,0,0.755-0.225,0.918-0.602l0.868-1.997
		c2.349,0.905,4.791,1.412,7.248,1.519v2.829H18.369c-1.894,0-3.434,1.541-3.434,3.434s1.54,3.434,3.434,3.434h23.586
		c1.894,0,3.434-1.541,3.434-3.434s-1.54-3.434-3.434-3.434H31.162v-2.851c2.516-0.112,5.024-0.617,7.435-1.567
		c5.72-2.253,10.22-6.598,12.671-12.235C53.719,31.229,53.828,24.975,51.575,19.255z M43.389,56.954
		c0,0.791-0.644,1.434-1.434,1.434H18.369c-0.79,0-1.434-0.643-1.434-1.434s0.644-1.434,1.434-1.434h23.586
		C42.745,55.52,43.389,56.163,43.389,56.954z M14.261,20.775c1.749-4.023,4.894-7.155,8.881-8.919l5.395,2.346
		c0.148,0.064,0.268,0.188,0.326,0.337l0.879,2.232c0.06,0.151,0.057,0.317-0.009,0.468l-1.054,2.424
		c-0.064,0.148-0.188,0.268-0.337,0.326l-3.68,1.449c-0.148,0.059-0.319,0.057-0.468-0.008l-2.521-1.097
		c-0.982-0.426-2.144-0.203-2.896,0.555l-0.511,0.515c-0.607,0.612-0.874,1.484-0.711,2.332c0.162,0.848,0.731,1.56,1.523,1.904
		l2.662,1.158c0.148,0.064,0.268,0.188,0.326,0.337l1.144,2.903c0.06,0.151,0.057,0.317-0.009,0.468l-1.105,2.543
		c-0.064,0.148-0.188,0.267-0.337,0.326l-6.769,2.66C12.497,31.489,12.038,25.887,14.261,20.775z M16.074,37.757l6.418-2.522
		c0.64-0.252,1.164-0.758,1.438-1.39l1.105-2.542c0.279-0.64,0.291-1.351,0.035-2L23.928,26.4c-0.256-0.648-0.749-1.159-1.389-1.437
		l-2.662-1.158c-0.268-0.116-0.339-0.351-0.357-0.446c-0.019-0.095-0.038-0.34,0.167-0.546l0.511-0.515
		c0.175-0.178,0.447-0.229,0.679-0.13l2.521,1.097c0.632,0.274,1.36,0.287,1.999,0.035l3.68-1.449
		c0.647-0.255,1.158-0.749,1.438-1.389l1.054-2.424c0.278-0.641,0.291-1.351,0.035-1.999l-0.879-2.232
		c-0.256-0.648-0.749-1.159-1.389-1.437l-3.403-1.48c1.395-0.354,2.814-0.548,4.234-0.548c2.348,0,4.693,0.483,6.911,1.448
		c4.247,1.847,7.521,5.237,9.218,9.546c0.365,0.926,0.631,1.872,0.831,2.826l-3.992-1.737c-0.642-0.278-1.35-0.289-1.996-0.035
		l-4.107,1.612c-0.642,0.252-1.167,0.758-1.441,1.39l-0.207,0.477c-0.573,1.321,0.034,2.863,1.354,3.437l2.438,1.061
		c0.148,0.064,0.267,0.187,0.325,0.337l1.046,2.653c0.059,0.149,0.056,0.319-0.009,0.467c-0.065,0.15-0.185,0.265-0.337,0.325
		c-0.154,0.061-0.32,0.058-0.468-0.008l-0.725-0.315c-0.631-0.275-1.361-0.288-1.999-0.035l-3.535,1.393
		c-0.648,0.255-1.158,0.749-1.438,1.389l-0.962,2.213c-0.275,0.632-0.287,1.361-0.034,2.002l1.602,4.054
		c-3.16,0.463-6.392,0.058-9.394-1.248C20.26,42.292,17.839,40.236,16.074,37.757z M46.063,34.604
		c-1.847,4.248-5.236,7.521-9.546,9.219c-0.62,0.244-1.25,0.441-1.885,0.612l-1.733-4.385c-0.059-0.149-0.056-0.32,0.009-0.469
		l0.962-2.212c0.065-0.15,0.186-0.266,0.337-0.326l3.535-1.393c0.149-0.06,0.319-0.057,0.467,0.008l0.726,0.315
		c0.64,0.279,1.35,0.291,1.999,0.035c0.649-0.256,1.16-0.75,1.438-1.388c0.275-0.631,0.287-1.36,0.035-2l-1.045-2.651
		c-0.251-0.64-0.757-1.165-1.389-1.439l-2.439-1.061c-0.31-0.135-0.451-0.497-0.317-0.806l0.207-0.476
		c0.064-0.148,0.188-0.267,0.338-0.326l4.108-1.612c0.151-0.058,0.322-0.054,0.468,0.008l5.124,2.228
		C47.655,29.234,47.193,32.006,46.063,34.604z M49.434,36.069c-2.238,5.147-6.347,9.115-11.569,11.173
		c-4.91,1.934-10.246,1.935-15.144,0.074l0.668-1.538c2.194,0.824,4.477,1.262,6.769,1.262c2.396,0,4.795-0.452,7.092-1.356
		c4.807-1.893,8.588-5.545,10.647-10.282s2.152-9.993,0.259-14.8c-1.77-4.493-5.089-8.07-9.381-10.202l0.667-1.536
		c4.702,2.312,8.338,6.216,10.271,11.125C51.771,25.21,51.672,30.921,49.434,36.069z"/>
</g>
<g id="filled_outline" style="display:none;">
	<circle style="display:inline;fill:#66D7DE;" cx="30.162" cy="27.69" r="18.34"/>
	<path style="display:inline;fill:#C07A53;" d="M41.955,54.52H18.37c-1.344,0-2.434,1.09-2.434,2.434v0
		c0,1.344,1.09,2.434,2.434,2.434h23.585c1.344,0,2.434-1.09,2.434-2.434v0C44.388,55.61,43.299,54.52,41.955,54.52z"/>
	<path style="display:inline;fill:#6CC72B;" d="M19.487,21.594l-0.511,0.515c-0.799,0.805-0.539,2.162,0.501,2.614l2.663,1.158
		c0.392,0.17,0.7,0.49,0.857,0.888l1.143,2.902c0.157,0.398,0.149,0.842-0.022,1.234l-1.106,2.544
		c-0.171,0.393-0.49,0.701-0.889,0.858l-7.584,2.981c-3.027-4.926-3.677-11.205-1.197-16.91c1.97-4.53,5.548-7.87,9.777-9.619
		l5.816,2.529c0.392,0.17,0.7,0.49,0.857,0.888l0.879,2.231c0.157,0.398,0.149,0.842-0.022,1.234l-1.054,2.425
		c-0.17,0.392-0.49,0.7-0.888,0.857l-3.679,1.449c-0.398,0.157-0.842,0.149-1.234-0.022l-2.522-1.097
		C20.665,20.986,19.956,21.122,19.487,21.594z M48.406,25.808l-5.67-2.466c-0.391-0.17-0.834-0.178-1.232-0.022l-4.108,1.612
		c-0.399,0.156-0.719,0.465-0.889,0.858l-0.207,0.476c-0.355,0.817,0.019,1.766,0.836,2.121l2.439,1.061
		c0.392,0.17,0.7,0.49,0.857,0.888l1.045,2.652c0.157,0.398,0.149,0.842-0.022,1.234l0,0c-0.355,0.817-1.305,1.191-2.121,0.836
		l-0.725-0.315c-0.392-0.17-0.836-0.178-1.234-0.022l-3.534,1.392c-0.398,0.157-0.717,0.465-0.888,0.857l-0.962,2.213
		c-0.171,0.393-0.178,0.837-0.021,1.235l2.054,5.198c5.57-1.198,10.509-4.983,12.957-10.614
		C48.285,32.003,48.721,28.845,48.406,25.808z"/>
	<path style="display:inline;" d="M51.575,19.255c-2.129-5.406-6.144-9.7-11.336-12.226l0.878-2.021
		c0.221-0.506-0.012-1.096-0.519-1.315c-0.51-0.224-1.097,0.011-1.315,0.519l-0.858,1.976l-1.368-0.595
		c-0.509-0.222-1.096,0.012-1.315,0.518c-0.221,0.507,0.012,1.096,0.519,1.316l1.368,0.595l-0.687,1.58
		c-4.489-1.687-9.372-1.676-13.867,0.094c-4.807,1.894-8.588,5.545-10.647,10.282c-4.117,9.471-0.016,20.455,9.128,25.003
		l-0.688,1.583l-1.367-0.594c-0.509-0.223-1.096,0.012-1.315,0.518c-0.221,0.506,0.012,1.096,0.519,1.316l1.367,0.594l-0.858,1.974
		c-0.221,0.506,0.012,1.096,0.519,1.315c0.13,0.057,0.265,0.083,0.397,0.083c0.387,0,0.755-0.225,0.918-0.602l0.868-1.997
		c2.349,0.905,4.791,1.412,7.248,1.519v2.829H18.369c-1.894,0-3.434,1.541-3.434,3.434s1.54,3.434,3.434,3.434h23.586
		c1.894,0,3.434-1.541,3.434-3.434s-1.54-3.434-3.434-3.434H31.162v-2.851c2.516-0.112,5.024-0.617,7.435-1.567
		c5.72-2.253,10.22-6.598,12.671-12.235C53.719,31.229,53.828,24.975,51.575,19.255z M43.389,56.954
		c0,0.791-0.644,1.434-1.434,1.434H18.369c-0.79,0-1.434-0.643-1.434-1.434s0.644-1.434,1.434-1.434h23.586
		C42.745,55.52,43.389,56.163,43.389,56.954z M14.261,20.775c1.749-4.023,4.894-7.155,8.881-8.919l5.395,2.346
		c0.148,0.064,0.268,0.188,0.326,0.337l0.879,2.232c0.06,0.151,0.057,0.317-0.009,0.468l-1.054,2.424
		c-0.064,0.148-0.188,0.268-0.337,0.326l-3.68,1.449c-0.148,0.059-0.319,0.057-0.468-0.008l-2.521-1.097
		c-0.982-0.426-2.144-0.203-2.896,0.555l-0.511,0.515c-0.607,0.612-0.874,1.484-0.711,2.332c0.162,0.848,0.731,1.56,1.523,1.904
		l2.662,1.158c0.148,0.064,0.268,0.188,0.326,0.337l1.144,2.903c0.06,0.151,0.057,0.317-0.009,0.468l-1.105,2.543
		c-0.064,0.148-0.188,0.267-0.337,0.326l-6.769,2.66C12.497,31.489,12.038,25.887,14.261,20.775z M16.074,37.757l6.418-2.522
		c0.64-0.252,1.164-0.758,1.438-1.39l1.105-2.542c0.279-0.64,0.291-1.351,0.035-2L23.928,26.4c-0.256-0.648-0.749-1.159-1.389-1.437
		l-2.662-1.158c-0.268-0.116-0.339-0.351-0.357-0.446c-0.019-0.095-0.038-0.34,0.167-0.546l0.511-0.515
		c0.175-0.178,0.447-0.229,0.679-0.13l2.521,1.097c0.632,0.274,1.36,0.287,1.999,0.035l3.68-1.449
		c0.647-0.255,1.158-0.749,1.438-1.389l1.054-2.424c0.278-0.641,0.291-1.351,0.035-1.999l-0.879-2.232
		c-0.256-0.648-0.749-1.159-1.389-1.437l-3.403-1.48c1.395-0.354,2.814-0.548,4.234-0.548c2.348,0,4.693,0.483,6.911,1.448
		c4.247,1.847,7.521,5.237,9.218,9.546c0.365,0.926,0.631,1.872,0.831,2.826l-3.992-1.737c-0.642-0.278-1.35-0.289-1.996-0.035
		l-4.107,1.612c-0.642,0.252-1.167,0.758-1.441,1.39l-0.207,0.477c-0.573,1.321,0.034,2.863,1.354,3.437l2.438,1.061
		c0.148,0.064,0.267,0.187,0.325,0.337l1.046,2.653c0.059,0.149,0.056,0.319-0.009,0.467c-0.065,0.15-0.185,0.265-0.337,0.325
		c-0.154,0.061-0.32,0.058-0.468-0.008l-0.725-0.315c-0.631-0.275-1.361-0.288-1.999-0.035l-3.535,1.393
		c-0.648,0.255-1.158,0.749-1.438,1.389l-0.962,2.213c-0.275,0.632-0.287,1.361-0.034,2.002l1.602,4.054
		c-3.16,0.463-6.392,0.058-9.394-1.248C20.26,42.292,17.839,40.236,16.074,37.757z M46.063,34.604
		c-1.847,4.248-5.236,7.521-9.546,9.219c-0.62,0.244-1.25,0.441-1.885,0.612l-1.733-4.385c-0.059-0.149-0.056-0.32,0.009-0.469
		l0.962-2.212c0.065-0.15,0.186-0.266,0.337-0.326l3.535-1.393c0.149-0.06,0.319-0.057,0.467,0.008l0.726,0.315
		c0.64,0.279,1.35,0.291,1.999,0.035c0.649-0.256,1.16-0.75,1.438-1.388c0.275-0.631,0.287-1.36,0.035-2l-1.045-2.651
		c-0.251-0.64-0.757-1.165-1.389-1.439l-2.439-1.061c-0.31-0.135-0.451-0.497-0.317-0.806l0.207-0.476
		c0.064-0.148,0.188-0.267,0.338-0.326l4.108-1.612c0.151-0.058,0.322-0.054,0.468,0.008l5.124,2.228
		C47.655,29.234,47.193,32.006,46.063,34.604z M49.434,36.069c-2.238,5.147-6.347,9.115-11.569,11.173
		c-4.91,1.934-10.246,1.935-15.144,0.074l0.668-1.538c2.194,0.824,4.477,1.262,6.769,1.262c2.396,0,4.795-0.452,7.092-1.356
		c4.807-1.893,8.588-5.545,10.647-10.282s2.152-9.993,0.259-14.8c-1.77-4.493-5.089-8.07-9.381-10.202l0.667-1.536
		c4.702,2.312,8.338,6.216,10.271,11.125C51.771,25.21,51.672,30.921,49.434,36.069z"/>
</g>
</svg>
